<?xml version="1.0" encoding="utf-8"?>
<!-- Generator: Adobe Illustrator 16.0.0, SVG Export Plug-In . SVG Version: 6.00 Build 0)  -->
<!DOCTYPE svg PUBLIC "-//W3C//DTD SVG 1.1//EN" "http://www.w3.org/Graphics/SVG/1.1/DTD/svg11.dtd">
<svg version="1.1" id="Layer_1" xmlns="http://www.w3.org/2000/svg" xmlns:xlink="http://www.w3.org/1999/xlink" x="0px" y="0px"
	 width="164.278px" height="73.365px" viewBox="0 0 164.278 73.365" enable-background="new 0 0 164.278 73.365"
	 xml:space="preserve">
<path fill="#2BACE2" d="M0.466,40.575c0-3.837,1.269-6.558,3.807-8.156c2.536-1.599,5.023-2.399,7.452-2.399
	c2.006,0,3.657,0.288,4.958,0.863c1.302,0.576,2.421,1.185,3.36,1.824c0.81-0.854,1.909-1.515,3.294-1.983
	c1.386-0.469,2.825-0.704,4.319-0.704c3.239,0,6.055,0.898,8.443,2.694c2.39,1.797,3.583,4.404,3.583,7.824v14.111h-6.717V40.526
	c0-1.325-0.479-2.363-1.439-3.112c-0.961-0.751-2.079-1.126-3.359-1.126c-1.323,0-2.441,0.365-3.358,1.093
	c-0.917,0.729-1.376,1.776-1.376,3.146v14.123h-6.716V40.477c0-1.333-0.461-2.363-1.377-3.094c-0.917-0.729-2.037-1.096-3.359-1.096
	s-2.451,0.366-3.39,1.096c-0.938,0.73-1.407,1.761-1.407,3.094v14.172H0.466V40.575z"/>
<path fill="#2BACE2" d="M43.522,21.535c-0.64-0.725-0.96-1.577-0.96-2.559c0-1.025,0.341-1.897,1.023-2.625
	c0.683-0.724,1.601-1.086,2.753-1.086c1.193,0,2.108,0.362,2.751,1.086c0.638,0.728,0.96,1.6,0.96,2.625
	c0,0.981-0.313,1.834-0.93,2.559c-0.617,0.726-1.546,1.087-2.781,1.087C45.143,22.622,44.205,22.26,43.522,21.535z M42.882,30.084
	h6.717v24.564h-6.717V30.084z"/>
<path fill="#2BACE2" d="M51.703,40.575c0-3.327,1.129-5.918,3.391-7.772c2.261-1.856,4.968-2.783,8.124-2.783
	s5.866,0.927,8.126,2.783c2.26,1.854,3.392,4.445,3.392,7.772v14.074h-6.719V40.575c0-1.32-0.458-2.345-1.374-3.07
	c-0.918-0.726-2.06-1.088-3.425-1.088c-1.278,0-2.397,0.362-3.357,1.088c-0.959,0.726-1.439,1.75-1.439,3.07v14.074h-6.718V40.575z"
	/>
<path fill="#2BACE2" d="M89.992,30.019c1.535,0,3.135,0.32,4.797,0.959v6.719c-0.683-0.554-1.353-0.907-2.013-1.056
	c-0.664-0.15-1.591-0.225-2.784-0.225c-1.834,0-3.242,0.544-4.223,1.632c-0.981,1.087-1.47,2.399-1.47,3.936
	c0,1.62,0.498,3.017,1.502,4.189c1.002,1.174,2.399,1.759,4.19,1.759c1.535,0,2.879-0.436,4.032-1.311
	c1.148-0.875,1.831-2.038,2.046-3.488V15.265h7.357v27.868c0,3.627-1.324,6.559-3.968,8.798c-2.645,2.239-5.8,3.359-9.468,3.359
	c-4.095,0-7.263-1.237-9.499-3.711c-2.24-2.474-3.36-5.438-3.36-8.894s1.131-6.429,3.39-8.924
	C82.783,31.266,85.939,30.019,89.992,30.019z"/>
<path fill="#12A79E" d="M145.82,37.601c-1.535,0-3.136-0.321-4.798-0.96v-6.719c0.681,0.556,1.353,0.907,2.015,1.056
	c0.661,0.15,1.59,0.226,2.783,0.226c1.833,0,3.241-0.544,4.223-1.633c0.979-1.086,1.471-2.398,1.471-3.935
	c0-1.619-0.501-3.017-1.505-4.19c-1-1.172-2.396-1.759-4.188-1.759c-1.535,0-2.878,0.438-4.03,1.312
	c-1.151,0.874-1.835,2.037-2.049,3.488v26.867h-7.354V24.487c0-3.626,1.32-6.56,3.965-8.799s5.801-3.358,9.469-3.358
	c4.052,0,7.207,1.248,9.469,3.743c2.26,2.496,3.39,5.47,3.39,8.924c0,3.413-1.13,6.365-3.39,8.861
	C153.027,36.353,149.872,37.601,145.82,37.601z"/>
<path fill="#12A79E" d="M123.493,12.13v15.481c0,1.266-0.47,2.246-1.408,2.939c-0.938,0.695-2.068,1.042-3.391,1.042
	s-2.454-0.347-3.391-1.042c-0.939-0.694-1.408-1.674-1.408-2.939v-6.012c0.016-0.11,0.039-0.22,0.039-0.334
	c0-0.046-0.003-0.71-0.007-0.755h0.007v-8.494h3.385L110.52,0l-7.024,12.017h3.674v8.494h0.009v0.031
	c-0.003,0.13-0.009,0.683-0.009,0.724c0,0.021,0.008,0.042,0.009,0.063v6.283c0,3.186,1.13,5.666,3.39,7.443
	c2.261,1.776,4.971,2.666,8.127,2.666c3.155,0,5.865-0.89,8.125-2.666c2.26-1.778,3.392-4.258,3.392-7.443V12.13H123.493z"/>
<ellipse fill="#C0E5E3" cx="132.222" cy="56.198" rx="24.125" ry="1.75"/>
<g>
	<path fill="#12A79E" d="M160.504,13.437v2.421h-0.424v-2.421h-0.792v-0.433h2.012v0.433H160.504z"/>
	<path fill="#12A79E" d="M163.888,15.858l-0.004-2.132l-0.792,1.835h-0.276l-0.793-1.835v2.132h-0.397v-2.854h0.502l0.828,1.896
		l0.824-1.896h0.499v2.854H163.888z"/>
</g>
<g>
	<path fill="#344459" d="M27.533,70.391l-2.664-6.961h-0.043c0.05,0.552,0.075,1.207,0.075,1.966v4.995h-0.843v-7.853h1.375
		l2.487,6.478h0.043l2.508-6.478h1.364v7.853h-0.913v-5.06c0-0.58,0.025-1.21,0.075-1.891h-0.043l-2.686,6.95H27.533z"/>
	<path fill="#344459" d="M33.889,62.909c0-0.203,0.05-0.354,0.15-0.448s0.226-0.142,0.376-0.142c0.143,0,0.267,0.048,0.371,0.145
		s0.156,0.245,0.156,0.445c0,0.201-0.052,0.351-0.156,0.449s-0.228,0.147-0.371,0.147c-0.15,0-0.276-0.049-0.376-0.147
		S33.889,63.11,33.889,62.909z M34.856,70.391h-0.892v-5.887h0.892V70.391z"/>
	<path fill="#344459" d="M40.885,70.391v-3.809c0-0.479-0.109-0.838-0.328-1.074s-0.561-0.354-1.026-0.354
		c-0.616,0-1.067,0.166-1.354,0.499s-0.43,0.883-0.43,1.649v3.088h-0.892v-5.887h0.725l0.145,0.806h0.043
		c0.183-0.29,0.438-0.515,0.768-0.674s0.696-0.239,1.101-0.239c0.709,0,1.243,0.171,1.601,0.513s0.537,0.89,0.537,1.642v3.84H40.885
		z"/>
	<path fill="#344459" d="M47.725,69.602h-0.048c-0.412,0.598-1.028,0.896-1.848,0.896c-0.77,0-1.369-0.264-1.796-0.789
		c-0.428-0.527-0.642-1.275-0.642-2.246c0-0.97,0.215-1.724,0.645-2.261s1.028-0.806,1.794-0.806c0.798,0,1.411,0.29,1.837,0.87
		h0.07l-0.038-0.425l-0.021-0.413v-2.396h0.892v8.357h-0.725L47.725,69.602z M45.942,69.752c0.609,0,1.05-0.166,1.324-0.497
		c0.273-0.331,0.411-0.866,0.411-1.604v-0.188c0-0.834-0.139-1.429-0.417-1.785c-0.277-0.356-0.72-0.535-1.329-0.535
		c-0.523,0-0.923,0.204-1.2,0.61c-0.278,0.406-0.417,0.979-0.417,1.722c0,0.752,0.138,1.319,0.414,1.702
		S45.408,69.752,45.942,69.752z"/>
	<path fill="#344459" d="M53.222,65.198h-1.499v5.193h-0.892v-5.193h-1.053v-0.403l1.053-0.322v-0.327
		c0-1.447,0.632-2.17,1.896-2.17c0.312,0,0.677,0.063,1.096,0.188l-0.231,0.715c-0.344-0.111-0.637-0.167-0.881-0.167
		c-0.336,0-0.585,0.112-0.747,0.336s-0.242,0.583-0.242,1.077v0.381h1.499V65.198z"/>
	<path fill="#344459" d="M55.244,64.504v3.818c0,0.48,0.109,0.838,0.328,1.074s0.561,0.355,1.026,0.355
		c0.616,0,1.066-0.169,1.351-0.506c0.285-0.336,0.427-0.886,0.427-1.648v-3.094h0.892v5.887h-0.736l-0.129-0.789h-0.048
		c-0.183,0.289-0.436,0.512-0.76,0.666c-0.324,0.153-0.693,0.23-1.109,0.23c-0.716,0-1.252-0.17-1.609-0.51
		c-0.356-0.341-0.534-0.885-0.534-1.633v-3.852H55.244z"/>
	<path fill="#344459" d="M62.16,70.391h-0.892v-8.357h0.892V70.391z"/>
	<path fill="#344459" d="M67.262,70.391v-7.853h0.913v7.025h3.464v0.827H67.262z"/>
	<path fill="#344459" d="M75.434,70.499c-0.869,0-1.556-0.265-2.06-0.795c-0.503-0.53-0.754-1.266-0.754-2.207
		c0-0.949,0.234-1.703,0.701-2.262c0.468-0.559,1.095-0.838,1.883-0.838c0.737,0,1.321,0.242,1.751,0.728s0.645,1.126,0.645,1.921
		v0.563h-4.055c0.018,0.691,0.192,1.216,0.524,1.573c0.331,0.358,0.798,0.537,1.399,0.537c0.633,0,1.26-0.132,1.879-0.396v0.795
		c-0.314,0.136-0.612,0.233-0.894,0.292C76.171,70.469,75.832,70.499,75.434,70.499z M75.192,65.143
		c-0.473,0-0.85,0.154-1.131,0.463c-0.281,0.308-0.446,0.733-0.497,1.277h3.078c0-0.562-0.125-0.992-0.376-1.291
		S75.658,65.143,75.192,65.143z"/>
	<path fill="#344459" d="M82.849,70.391l-0.177-0.838h-0.043c-0.294,0.369-0.587,0.618-0.879,0.749s-0.656,0.196-1.093,0.196
		c-0.584,0-1.041-0.15-1.372-0.451s-0.497-0.729-0.497-1.283c0-1.189,0.95-1.813,2.853-1.869l0.998-0.033v-0.365
		c0-0.461-0.099-0.803-0.298-1.022c-0.198-0.221-0.517-0.331-0.953-0.331c-0.49,0-1.046,0.15-1.665,0.451l-0.273-0.682
		c0.289-0.157,0.607-0.281,0.953-0.371c0.346-0.089,0.691-0.134,1.039-0.134c0.702,0,1.222,0.155,1.561,0.468
		c0.338,0.311,0.508,0.811,0.508,1.498v4.018H82.849z M80.834,69.762c0.556,0,0.991-0.151,1.309-0.456
		c0.316-0.305,0.475-0.73,0.475-1.278v-0.531l-0.891,0.037c-0.709,0.025-1.221,0.135-1.534,0.33s-0.47,0.499-0.47,0.91
		c0,0.322,0.098,0.568,0.293,0.736S80.483,69.762,80.834,69.762z"/>
	<path fill="#344459" d="M88.142,64.397c0.262,0,0.496,0.021,0.703,0.064l-0.123,0.827c-0.243-0.054-0.458-0.081-0.645-0.081
		c-0.477,0-0.884,0.193-1.222,0.58c-0.339,0.387-0.508,0.869-0.508,1.445v3.158h-0.892v-5.887h0.736l0.102,1.09h0.043
		c0.219-0.383,0.481-0.678,0.789-0.886C87.435,64.5,87.772,64.397,88.142,64.397z"/>
	<path fill="#344459" d="M94.085,70.391v-3.809c0-0.479-0.109-0.838-0.327-1.074c-0.219-0.236-0.561-0.354-1.026-0.354
		c-0.616,0-1.067,0.166-1.354,0.499s-0.43,0.883-0.43,1.649v3.088h-0.892v-5.887h0.725l0.146,0.806h0.043
		c0.183-0.29,0.438-0.515,0.769-0.674c0.329-0.159,0.696-0.239,1.101-0.239c0.709,0,1.242,0.171,1.601,0.513s0.537,0.89,0.537,1.642
		v3.84H94.085z"/>
	<path fill="#344459" d="M96.843,62.909c0-0.203,0.05-0.354,0.15-0.448s0.226-0.142,0.376-0.142c0.144,0,0.267,0.048,0.371,0.145
		c0.104,0.097,0.155,0.245,0.155,0.445c0,0.201-0.052,0.351-0.155,0.449c-0.104,0.099-0.228,0.147-0.371,0.147
		c-0.15,0-0.275-0.049-0.376-0.147S96.843,63.11,96.843,62.909z M97.81,70.391h-0.892v-5.887h0.892V70.391z"/>
	<path fill="#344459" d="M103.839,70.391v-3.809c0-0.479-0.109-0.838-0.327-1.074c-0.219-0.236-0.561-0.354-1.026-0.354
		c-0.616,0-1.067,0.166-1.354,0.499s-0.43,0.883-0.43,1.649v3.088h-0.892v-5.887h0.725l0.146,0.806h0.043
		c0.183-0.29,0.438-0.515,0.769-0.674c0.329-0.159,0.696-0.239,1.101-0.239c0.709,0,1.242,0.171,1.601,0.513s0.537,0.89,0.537,1.642
		v3.84H103.839z"/>
	<path fill="#344459" d="M111.49,64.504v0.564l-1.091,0.129c0.101,0.125,0.189,0.289,0.269,0.491s0.118,0.431,0.118,0.685
		c0,0.576-0.197,1.037-0.591,1.381s-0.935,0.516-1.622,0.516c-0.176,0-0.34-0.015-0.494-0.043c-0.38,0.2-0.569,0.452-0.569,0.757
		c0,0.161,0.066,0.28,0.199,0.357c0.132,0.077,0.359,0.115,0.682,0.115h1.042c0.638,0,1.127,0.134,1.469,0.403
		c0.342,0.268,0.513,0.658,0.513,1.17c0,0.652-0.261,1.149-0.783,1.491c-0.523,0.342-1.286,0.513-2.289,0.513
		c-0.77,0-1.363-0.144-1.78-0.43s-0.626-0.691-0.626-1.214c0-0.358,0.115-0.668,0.344-0.929c0.229-0.262,0.552-0.439,0.967-0.532
		c-0.15-0.068-0.276-0.174-0.378-0.317c-0.103-0.143-0.153-0.31-0.153-0.499c0-0.215,0.058-0.403,0.172-0.563
		c0.114-0.162,0.295-0.317,0.543-0.468c-0.305-0.125-0.553-0.339-0.744-0.64s-0.287-0.645-0.287-1.031
		c0-0.645,0.193-1.141,0.58-1.49c0.387-0.349,0.934-0.523,1.643-0.523c0.309,0,0.586,0.036,0.833,0.107H111.49z M106.795,71.379
		c0,0.318,0.135,0.561,0.403,0.725c0.269,0.165,0.653,0.248,1.155,0.248c0.748,0,1.302-0.112,1.662-0.336
		c0.359-0.224,0.539-0.527,0.539-0.91c0-0.319-0.098-0.54-0.295-0.664c-0.197-0.123-0.567-0.186-1.111-0.186h-1.069
		c-0.404,0-0.72,0.098-0.945,0.291S106.795,71.018,106.795,71.379z M107.279,66.389c0,0.412,0.116,0.724,0.349,0.936
		c0.232,0.211,0.557,0.316,0.972,0.316c0.871,0,1.306-0.423,1.306-1.268c0-0.885-0.44-1.326-1.321-1.326
		c-0.419,0-0.741,0.112-0.967,0.338S107.279,65.946,107.279,66.389z"/>
	<path fill="#344459" d="M118.326,70.391h-0.912V63.35h-2.487v-0.812h5.887v0.812h-2.487V70.391z"/>
	<path fill="#344459" d="M127.052,67.442c0,0.96-0.241,1.709-0.726,2.248c-0.482,0.539-1.15,0.809-2.003,0.809
		c-0.526,0-0.993-0.123-1.401-0.371c-0.408-0.246-0.724-0.602-0.945-1.063c-0.223-0.463-0.334-1.003-0.334-1.623
		c0-0.959,0.24-1.707,0.721-2.242c0.479-0.535,1.146-0.803,1.998-0.803c0.823,0,1.478,0.273,1.963,0.822
		C126.81,65.766,127.052,66.508,127.052,67.442z M122.566,67.442c0,0.752,0.15,1.325,0.451,1.719
		c0.301,0.395,0.743,0.592,1.327,0.592s1.026-0.196,1.329-0.589c0.303-0.392,0.454-0.966,0.454-1.722
		c0-0.748-0.151-1.316-0.454-1.705s-0.749-0.582-1.34-0.582c-0.584,0-1.024,0.191-1.321,0.574S122.566,66.683,122.566,67.442z"/>
	<path fill="#344459" d="M133.806,67.442c0,0.96-0.241,1.709-0.726,2.248c-0.482,0.539-1.15,0.809-2.003,0.809
		c-0.526,0-0.993-0.123-1.401-0.371c-0.408-0.246-0.724-0.602-0.945-1.063c-0.223-0.463-0.334-1.003-0.334-1.623
		c0-0.959,0.24-1.707,0.721-2.242c0.479-0.535,1.146-0.803,1.998-0.803c0.823,0,1.478,0.273,1.963,0.822
		C133.563,65.766,133.806,66.508,133.806,67.442z M129.32,67.442c0,0.752,0.15,1.325,0.451,1.719
		c0.301,0.395,0.743,0.592,1.327,0.592s1.026-0.196,1.329-0.589c0.303-0.392,0.454-0.966,0.454-1.722
		c0-0.748-0.151-1.316-0.454-1.705s-0.749-0.582-1.34-0.582c-0.584,0-1.024,0.191-1.321,0.574S129.32,66.683,129.32,67.442z"/>
	<path fill="#344459" d="M136.371,70.391h-0.892v-8.357h0.892V70.391z"/>
</g>
</svg>
